<?xml version="1.0" encoding="utf-8"?>
<!-- Generator: Adobe Illustrator 24.1.2, SVG Export Plug-In . SVG Version: 6.00 Build 0)  -->
<svg version="1.1" id="Layer_1" xmlns="http://www.w3.org/2000/svg" xmlns:xlink="http://www.w3.org/1999/xlink" x="0px" y="0px"
	 viewBox="0 0 508 440" style="enable-background:new 0 0 508 440;" xml:space="preserve">
<style type="text/css">
	.st0{fill:#FFFFFF;}
</style>
<path class="st0" d="M455,171v252c0,9-7,17-17,17H318c-9,0-17-8-17-17V293h-94v130c0,9-7,17-17,17H70c-9,0-17-8-17-17V171l-27,18
	c-7,5-18,3-23-4c-5-8-3-19,5-24L245,3c6-4,14-4,20,1l236,157c8,5,10,16,5,23c-5,8-16,10-24,5L455,171z M87,149v257h87V277
	c0-10,7-17,16-17h128c9,0,17,7,17,17v129h86V149L254,37L87,149z"/>
</svg>
