<?xml version="1.0" encoding="utf-8"?>
<!-- Generator: Adobe Illustrator 24.0.1, SVG Export Plug-In . SVG Version: 6.00 Build 0)  -->
<svg version="1.1" xmlns="http://www.w3.org/2000/svg" xmlns:xlink="http://www.w3.org/1999/xlink" x="0px" y="0px"
	 viewBox="0 0 543.65 132.85" style="enable-background:new 0 0 543.65 132.85;" xml:space="preserve">
<style type="text/css">
	.st0{fill:none;}
	.st1{fill:#E20074;}
</style>
<g id="Boundingbox">
	<rect x="-11.76" y="-59.42" class="st0" width="566.93" height="253.06"/>
</g>
<g id="T_Mobile_US">
	<g>
		<path class="st1" d="M397.25,29.63c2.45,0,4.53-0.86,6.25-2.58c1.67-1.72,2.51-3.78,2.51-6.18c0-2.39-0.87-4.45-2.59-6.18
			c-1.66-1.72-3.67-2.58-6.01-2.58c-2.46,0-4.54,0.84-6.26,2.5c-1.77,1.67-2.66,3.76-2.66,6.25c0,2.4,0.86,4.46,2.58,6.18
			C392.74,28.77,394.8,29.63,397.25,29.63z"/>
		<path class="st1" d="M180.22,91.41l-22.84-78.52h-30.97v5.09h2.97c2.4,0,4.22,0.21,5.47,0.62c2.14,0.68,3.52,2.29,4.14,4.84
			c0.31,1.15,0.47,3.58,0.47,7.27v61.87c0,5.78-0.19,9.88-0.55,12.28c-0.52,3.18-1.67,5.55-3.44,7.12c-1.87,1.67-4.04,2.5-6.49,2.5
			h-2.58v5.16h33.08v-5.16h-2.11c-5.79,0-9.46-2.78-11.03-8.36c-0.52-2.03-0.78-6.54-0.78-13.53v-70l28.15,97.06h4.93l28.23-97.06
			v76.18c0,3.6-0.16,6.54-0.47,8.84c-0.21,1.93-0.86,3.41-1.95,4.46c-1.67,1.61-4.51,2.41-8.53,2.41h-1.33v5.16h40.12v-5.16h-2.19
			c-5.53,0-8.87-1.63-10.01-4.92c-0.57-1.78-0.86-5.37-0.86-10.79V33.77c0-3.6,0.15-6.58,0.47-8.92c0.21-1.88,0.86-3.34,1.95-4.38
			c1.62-1.66,4.43-2.5,8.45-2.5h2.19v-5.09h-31.21L180.22,91.41z"/>
		<path class="st1" d="M268.9,43.7c-10.01,0-18.12,3.94-24.32,11.81c-5.42,6.88-8.13,15.98-8.13,27.29c0,11.27,2.71,20.36,8.13,27.3
			c6.15,7.88,14.1,11.8,23.86,11.8c10.32,0,18.56-3.93,24.71-11.8c5.42-6.94,8.13-16.09,8.13-27.46c0-11.21-2.71-20.26-8.13-27.14
			C286.94,47.64,278.86,43.7,268.9,43.7z M268.9,116.76c-5.73,0-9.91-2.66-12.52-7.98c-2.92-6.05-4.38-14.97-4.38-26.76
			c0-14.23,2.37-23.79,7.12-28.7c2.87-2.97,6.13-4.46,9.78-4.46c2.35,0,4.51,0.61,6.49,1.8c2.92,1.83,5.14,4.44,6.65,7.83
			c2.45,5.47,3.68,13.48,3.68,24C285.72,105.34,280.11,116.76,268.9,116.76z"/>
		<path class="st1" d="M347.03,44.41c-5.22,0-9.8,1.59-13.76,4.77c-2.14,1.72-3.88,4.12-5.24,7.2V11.79l-22.84,1.1v4.93h1.17
			c3.02,0,5.09,0.65,6.18,1.95c1.3,1.4,1.95,5,1.95,10.79v73.28c0,6.57-0.23,10.92-0.7,13.06c-0.06,0.31-0.34,1.23-0.86,2.73h5.32
			c1.2-1.93,2.33-3.62,3.37-5.09c1.14-1.66,2.18-2.49,3.12-2.49c0.78,0,1.69,0.41,2.74,1.25c2.72,2.24,4.48,3.62,5.32,4.15
			c3.96,2.55,8.32,3.83,13.06,3.83c8.76,0,15.83-3.62,21.2-10.87c5.73-7.77,8.6-17.41,8.6-28.94c0-12.09-3.2-21.71-9.62-28.85
			C361.08,47.15,354.75,44.41,347.03,44.41z M344.22,115.66c-2.77,0-5.24-0.73-7.43-2.18c-2.66-1.77-4.7-4.18-6.1-7.21
			c-2.65-5.68-3.99-13.73-3.99-24.17c0-13.5,2.81-22.83,8.44-27.99c3.03-2.71,6.28-4.06,9.78-4.06c4.95,0,8.68,2.6,11.19,7.82
			c2.66,5.63,3.99,13.61,3.99,23.93C360.1,104.37,354.8,115.66,344.22,115.66z"/>
		<path class="st1" d="M508.46,109.09c-3.7,4.39-8.32,6.57-13.84,6.57c-7.09,0-12.1-3.49-15.01-10.48
			c-2.1-4.95-3.16-12.59-3.21-22.92h43.79c-0.31-8.76-1.95-16.09-4.92-21.97c-5.52-11.06-13.79-16.59-24.79-16.59
			c-7.4,0-13.74,2.95-19.01,8.84c-6.67,7.45-10.01,17.39-10.01,29.8c0,13.51,3.34,23.83,10.01,30.98c5.37,5.73,12.25,8.6,20.65,8.6
			c11.42,0,20.49-6.75,27.22-20.26l-4.77-2.5C512.53,103.38,510.49,106.7,508.46,109.09z M478.19,63.1
			c2.55-9.17,6.91-13.76,13.06-13.76c5.47,0,9.49,3.73,12.04,11.19c1.41,4.22,2.11,9.59,2.11,16.11h-28.86
			C476.6,71.32,477.15,66.8,478.19,63.1z"/>
		<path class="st1" d="M447.77,112.76c-1.31-1.51-1.96-5.19-1.96-11.02V11.79l-23.46,1.1v4.93h1.8c3.02,0,5.08,0.65,6.18,1.95
			c1.31,1.46,1.96,5.08,1.96,10.87v71.09c0,5.84-0.65,9.51-1.96,11.02c-1.1,1.3-3.15,1.96-6.18,1.96h-2.58v4.92h34.95v-4.92h-2.58
			C450.98,114.72,448.91,114.07,447.77,112.76z"/>
		<path class="st1" d="M407.18,112.76c-1.31-1.45-1.95-5.13-1.95-11.02V44.87l-23.47,1.1v5.01h1.8c3.02,0,5.09,0.63,6.18,1.87
			c1.29,1.46,1.95,5.09,1.95,10.88v38.01c0,5.84-0.66,9.51-1.95,11.02c-1.1,1.3-3.16,1.96-6.18,1.96h-2.57v4.92h34.96v-4.92h-2.58
			C410.33,114.72,408.27,114.07,407.18,112.76z"/>
		<polygon class="st1" points="74.57,62 74.57,83.61 96.18,83.61 96.18,62 84.99,62 		"/>
		<path class="st1" d="M9.72,12.89L8.65,50.56l5.67,0.98c1.05-11.1,3.97-19.34,8.74-24.71c5.02-5.62,11.94-8.56,20.82-8.81v78.79
			c0,6.89-0.96,11.35-2.97,13.42c-1.71,1.76-4.59,2.84-8.66,3.24c-1.2,0.1-3.26,0.15-6.18,0.15v6.03l52.7,0v-6.03
			c-2.91,0-4.97-0.05-6.18-0.15c-4.07-0.4-6.95-1.48-8.66-3.24c-2.01-2.07-2.98-6.53-2.98-13.42V18.02
			c8.89,0.25,15.81,3.19,20.83,8.81c4.77,5.37,7.69,13.61,8.74,24.71l5.66-0.98l-1.07-37.67H9.72z"/>
		<polygon class="st1" points="30.27,62 19.58,62 8.65,62 8.65,83.61 30.27,83.61 		"/>
	</g>
	<g>
		<path class="st1" d="M522.59,52.27v-7.46h-2.34V43.7h5.95v1.11h-2.35v7.46H522.59z M527.23,52.27V43.7h1.65l2.14,6.95l2.05-6.95
			h1.67v8.57h-1.17V45.5l-1.92,6.77h-1.29l-1.99-6.64v6.64H527.23z"/>
	</g>
</g>
</svg>
