<?xml version="1.0" encoding="utf-8"?>
<!-- Generator: Adobe Illustrator 24.1.2, SVG Export Plug-In . SVG Version: 6.00 Build 0)  -->
<svg version="1.1" id="Layer_1" xmlns="http://www.w3.org/2000/svg" xmlns:xlink="http://www.w3.org/1999/xlink" x="0px" y="0px"
	 viewBox="0 0 792 449.56" style="enable-background:new 0 0 792 449.56;" xml:space="preserve">
<style type="text/css">
	.st0{fill:#E20074;}
</style>
<g>
	<g>
		<g>
			<g>
				<polygon class="st0" points="94.53,243.98 118.43,243.98 118.43,220.08 94.53,220.08 94.53,243.98 				"/>
			</g>
			<g>
				<path class="st0" d="M152.04,171.26c19.46,0.34,31.07,13.32,32.78,37.04l6.32-1.02l-1.21-41.65H95.71l-1.19,41.65l6.31,1.02
					c1.71-23.72,13.15-36.7,32.78-37.04v87.22c0,15.87-2.73,18.44-19.8,18.61v6.65h58.03v-6.65c-17.06-0.17-19.8-2.73-19.8-18.61
					V171.26L152.04,171.26z"/>
			</g>
			<g>
				<polygon class="st0" points="167.03,243.98 190.92,243.98 190.92,220.08 167.03,220.08 167.03,243.98 				"/>
			</g>
		</g>
	</g>
	<g>
		<g>
			<path class="st0" d="M197.25,201.93h0.6c0.62,0,0.94,0.24,0.94,0.72c0,0.51-0.34,0.77-0.99,0.77h-0.55V201.93 M198.78,204.01
				c0.67-0.27,1.01-0.74,1.01-1.39c0-0.48-0.18-0.86-0.54-1.13c-0.36-0.29-0.82-0.42-1.37-0.42h-1.67v5.31h1.04v-2.11h0.6l1.39,2.11
				h1.17L198.78,204.01z M194.47,200.25c-0.96,0.96-1.44,2.11-1.44,3.46c0,1.35,0.48,2.52,1.44,3.48c0.96,0.97,2.11,1.44,3.46,1.44
				c1.36,0,2.51-0.47,3.47-1.44c0.96-0.96,1.44-2.12,1.44-3.48c0-1.34-0.48-2.5-1.44-3.45c-0.96-0.95-2.11-1.44-3.47-1.44
				C196.58,198.82,195.41,199.3,194.47,200.25z M195.09,206.57c-0.79-0.78-1.17-1.73-1.17-2.84c0-1.1,0.39-2.05,1.18-2.83
				c0.78-0.79,1.72-1.18,2.82-1.18c1.11,0,2.06,0.39,2.84,1.18c0.79,0.78,1.18,1.73,1.18,2.83c0,1.11-0.4,2.05-1.18,2.84
				c-0.78,0.79-1.73,1.18-2.84,1.18C196.81,207.74,195.87,207.35,195.09,206.57z"/>
		</g>
	</g>
</g>
<g>
	<g>
		<path d="M266.4,219.06v-43.45h-12.9v-9.74h37.29v9.74h-12.98v43.45H266.4z"/>
		<path d="M305.87,194.4v9.59h-17.65v-9.59H305.87z"/>
		<path d="M318.5,219.06v-53.19h15.47l9.47,36.43l9.24-36.43h15.35v53.19h-10.95v-36.98L348,219.06h-9.27l-9.27-36.51v36.51H318.5z"
			/>
		<path d="M395.89,164.66c6.13,0,11.24,2.29,15.31,6.86c4.65,5.17,6.98,12.16,6.98,20.96c0,7.53-1.75,13.83-5.26,18.9
			c-2.08,2.99-4.7,5.27-7.87,6.86c-2.83,1.4-5.99,2.1-9.47,2.1c-7.51,0-13.38-3.05-17.61-9.16c-3.43-4.94-5.14-11.14-5.14-18.63
			c0-8.78,2.22-15.69,6.66-20.73C383.7,167.06,389.16,164.66,395.89,164.66z M395.39,174.41c-3.43,0-6.11,1.65-8.03,4.95
			c-2.08,3.58-3.12,7.92-3.12,13.02c0,5.33,1.03,9.76,3.08,13.29c0.94,1.61,2.31,2.91,4.13,3.9c1.32,0.7,2.73,1.05,4.21,1.05
			c2.16,0,4.1-0.75,5.85-2.26c1.74-1.51,3.09-3.9,4.05-7.17c0.8-2.75,1.21-5.68,1.21-8.77c0-5.2-1.01-9.55-3.04-13.05
			C401.8,176.06,399.02,174.41,395.39,174.41z"/>
		<path d="M422.94,219.06v-53.19h18.98c3.77,0,6.68,0.35,8.73,1.05c2.96,1.04,5.16,2.73,6.59,5.07c1.27,2.05,1.91,4.34,1.91,6.86
			c0,5.22-2.55,9.01-7.64,11.38c6.47,2.18,9.7,6.57,9.7,13.17c0,5.77-2.18,10.09-6.55,12.98c-2.73,1.79-6.38,2.69-10.95,2.69H422.94
			z M434.35,187.38h5.1c2.81,0,4.81-0.43,6-1.29c1.61-1.19,2.42-2.9,2.42-5.1c0-2.42-0.97-4.14-2.92-5.18
			c-1.04-0.57-2.87-0.86-5.49-0.86h-5.1V187.38z M434.35,209.98h6.16c3.2,0,5.46-0.53,6.78-1.6c1.66-1.32,2.49-3.25,2.49-5.77
			c0-2.94-1.1-5-3.31-6.2c-1.3-0.7-3.44-1.05-6.43-1.05h-5.69V209.98z"/>
		<path d="M466,219.06v-53.19h11.42v53.19H466z"/>
		<path d="M484.12,219.06v-53.19h11.42v43.29h20.89v9.9H484.12z"/>
		<path d="M520.98,219.06v-53.19h33.94v9.74H532.4v11.38h20.57v9.27H532.4v13.05h22.99v9.74H520.98z"/>
	</g>
	<g>
		<path d="M254.09,283.61v-53.19h32.19v9.74h-20.93v12.39h18.12v9.27h-18.12v21.78H254.09z"/>
		<path d="M310.52,229.21c6.13,0,11.24,2.29,15.31,6.86c4.65,5.17,6.98,12.16,6.98,20.96c0,7.53-1.75,13.83-5.26,18.9
			c-2.08,2.99-4.7,5.27-7.87,6.86c-2.83,1.4-5.99,2.1-9.47,2.1c-7.51,0-13.38-3.05-17.61-9.16c-3.43-4.94-5.14-11.14-5.14-18.63
			c0-8.78,2.22-15.69,6.66-20.73C298.32,231.6,303.79,229.21,310.52,229.21z M310.01,238.95c-3.43,0-6.11,1.65-8.03,4.95
			c-2.08,3.58-3.12,7.92-3.12,13.02c0,5.33,1.03,9.76,3.08,13.29c0.94,1.61,2.31,2.91,4.13,3.9c1.32,0.7,2.73,1.05,4.21,1.05
			c2.16,0,4.1-0.75,5.85-2.26c1.74-1.51,3.09-3.9,4.05-7.17c0.8-2.75,1.21-5.68,1.21-8.77c0-5.2-1.01-9.55-3.04-13.05
			C316.42,240.6,313.65,238.95,310.01,238.95z"/>
		<path d="M337.56,283.61v-53.19h20.46c5.35,0,9.49,1.17,12.43,3.51c3.35,2.68,5.03,6.46,5.03,11.34c0,4.03-1.18,7.42-3.55,10.17
			c-1.04,1.2-2.4,2.21-4.09,3.04c2.16,0.68,3.83,2.03,5.03,4.05c0.78,1.25,1.34,3.09,1.68,5.53c0.16,0.86,0.39,3.52,0.7,7.99
			c0.21,2.78,0.49,4.65,0.86,5.61c0.21,0.52,0.53,1.17,0.97,1.95h-11.77c-0.36-0.86-0.62-1.87-0.78-3.04
			c-0.08-0.65-0.26-2.94-0.55-6.86c-0.29-3.69-0.75-6.14-1.4-7.36c-0.78-1.71-1.97-2.81-3.58-3.27c-0.81-0.23-1.96-0.35-3.47-0.35
			h-6.55v20.89H337.56z M348.98,254.11h6.27c3.45,0,5.83-0.73,7.13-2.18c1.12-1.27,1.68-3.04,1.68-5.3c0-2.73-0.94-4.73-2.81-6
			c-1.12-0.75-3.04-1.13-5.77-1.13h-6.51V254.11z"/>
		<path d="M392.62,283.61v-53.19h18.98c3.77,0,6.68,0.35,8.73,1.05c2.96,1.04,5.16,2.73,6.59,5.07c1.27,2.05,1.91,4.34,1.91,6.86
			c0,5.22-2.55,9.01-7.64,11.38c6.47,2.18,9.7,6.57,9.7,13.17c0,5.77-2.18,10.09-6.55,12.98c-2.73,1.79-6.38,2.69-10.95,2.69H392.62
			z M404.04,251.93h5.1c2.81,0,4.81-0.43,6-1.29c1.61-1.19,2.42-2.9,2.42-5.1c0-2.42-0.97-4.14-2.92-5.18
			c-1.04-0.57-2.87-0.86-5.49-0.86h-5.1V251.93z M404.04,274.53h6.16c3.2,0,5.46-0.53,6.78-1.6c1.66-1.32,2.49-3.25,2.49-5.77
			c0-2.94-1.1-5-3.31-6.2c-1.3-0.7-3.44-1.05-6.43-1.05h-5.69V274.53z"/>
		<path d="M435.06,230.42h10.95v30.98c0,5.07,0.7,8.6,2.1,10.6c1.51,2.1,3.82,3.16,6.94,3.16c3.38,0,5.68-1.44,6.9-4.33
			c0.86-1.97,1.29-5.13,1.29-9.47v-30.94h11.42v30.36c0,4.78-0.34,8.4-1.01,10.87c-1.17,4.23-3.27,7.51-6.31,9.82
			c-3.01,2.29-7.18,3.43-12.51,3.43c-7.64,0-13.11-2.57-16.41-7.72c-1.43-2.26-2.39-4.97-2.88-8.14c-0.31-2.03-0.47-4.83-0.47-8.42
			V230.42z"/>
		<path d="M478.16,268.06h11.5c0.31,2.08,0.79,3.62,1.44,4.64c1.35,2.08,3.3,3.12,5.85,3.12c2.26,0,4.01-0.7,5.26-2.1
			c1.09-1.19,1.64-2.7,1.64-4.52c0-2.05-0.87-3.79-2.61-5.22c-0.83-0.68-1.88-1.29-3.16-1.83c-0.36-0.16-1.68-0.64-3.94-1.44
			c-4.36-1.53-7.52-3.06-9.47-4.6c-3.87-3.06-5.81-7.08-5.81-12.04c0-4.26,1.35-7.73,4.05-10.4c3.01-2.96,7.18-4.44,12.51-4.44
			c6.65,0,11.64,2.27,14.96,6.82c1.56,2.13,2.58,4.94,3.08,8.42h-11.14c-0.26-2.05-0.91-3.55-1.95-4.48
			c-1.25-1.09-2.92-1.64-5.03-1.64c-1.79,0-3.2,0.43-4.21,1.29c-1.17,0.96-1.75,2.33-1.75,4.09c0,2,0.88,3.61,2.65,4.83
			c1.3,0.94,3.87,2.03,7.72,3.27c4.49,1.46,7.97,3.16,10.44,5.1c3.58,2.86,5.38,6.7,5.38,11.53c0,4.83-1.66,8.75-4.99,11.77
			c-3.46,3.12-8.07,4.68-13.83,4.68c-6.88,0-12.02-2.58-15.39-7.75C479.64,274.49,478.58,271.46,478.16,268.06z"/>
		<path d="M519.7,283.61v-53.19h11.42v53.19H519.7z"/>
		<path d="M537.82,283.61v-53.19h11.53l16.68,34.21v-34.21h10.95v53.19h-11.42l-16.79-34.17v34.17H537.82z"/>
		<path d="M583.69,283.61v-53.19h33.94v9.74h-22.52v11.38h20.57v9.27h-20.57v13.05h22.99v9.74H583.69z"/>
		<path d="M621.06,268.06h11.5c0.31,2.08,0.79,3.62,1.44,4.64c1.35,2.08,3.3,3.12,5.85,3.12c2.26,0,4.01-0.7,5.26-2.1
			c1.09-1.19,1.64-2.7,1.64-4.52c0-2.05-0.87-3.79-2.61-5.22c-0.83-0.68-1.88-1.29-3.16-1.83c-0.36-0.16-1.68-0.64-3.94-1.44
			c-4.36-1.53-7.52-3.06-9.47-4.6c-3.87-3.06-5.81-7.08-5.81-12.04c0-4.26,1.35-7.73,4.05-10.4c3.01-2.96,7.18-4.44,12.51-4.44
			c6.65,0,11.64,2.27,14.96,6.82c1.56,2.13,2.58,4.94,3.08,8.42h-11.14c-0.26-2.05-0.91-3.55-1.95-4.48
			c-1.25-1.09-2.92-1.64-5.03-1.64c-1.79,0-3.2,0.43-4.21,1.29c-1.17,0.96-1.75,2.33-1.75,4.09c0,2,0.88,3.61,2.65,4.83
			c1.3,0.94,3.87,2.03,7.72,3.27c4.49,1.46,7.97,3.16,10.44,5.1c3.59,2.86,5.38,6.7,5.38,11.53c0,4.83-1.66,8.75-4.99,11.77
			c-3.46,3.12-8.07,4.68-13.83,4.68c-6.88,0-12.02-2.58-15.39-7.75C622.54,274.49,621.48,271.46,621.06,268.06z"/>
		<path d="M660.07,268.06h11.5c0.31,2.08,0.79,3.62,1.44,4.64c1.35,2.08,3.3,3.12,5.85,3.12c2.26,0,4.01-0.7,5.26-2.1
			c1.09-1.19,1.64-2.7,1.64-4.52c0-2.05-0.87-3.79-2.61-5.22c-0.83-0.68-1.88-1.29-3.16-1.83c-0.36-0.16-1.68-0.64-3.94-1.44
			c-4.36-1.53-7.52-3.06-9.47-4.6c-3.87-3.06-5.81-7.08-5.81-12.04c0-4.26,1.35-7.73,4.05-10.4c3.01-2.96,7.18-4.44,12.51-4.44
			c6.65,0,11.64,2.27,14.96,6.82c1.56,2.13,2.58,4.94,3.08,8.42h-11.14c-0.26-2.05-0.91-3.55-1.95-4.48
			c-1.25-1.09-2.92-1.64-5.03-1.64c-1.79,0-3.2,0.43-4.21,1.29c-1.17,0.96-1.75,2.33-1.75,4.09c0,2,0.88,3.61,2.65,4.83
			c1.3,0.94,3.87,2.03,7.72,3.27c4.49,1.46,7.97,3.16,10.44,5.1c3.59,2.86,5.38,6.7,5.38,11.53c0,4.83-1.66,8.75-4.99,11.77
			c-3.46,3.12-8.07,4.68-13.83,4.68c-6.88,0-12.02-2.58-15.39-7.75C661.55,274.49,660.48,271.46,660.07,268.06z"/>
	</g>
	<g>
		<g>
			<rect x="220.28" y="165.54" width="3.63" height="118.26"/>
		</g>
	</g>
</g>
</svg>
