<?xml version="1.0" encoding="utf-8"?>
<!-- Generator: Adobe Illustrator 24.1.2, SVG Export Plug-In . SVG Version: 6.00 Build 0)  -->
<svg version="1.1" id="Layer_1" xmlns="http://www.w3.org/2000/svg" xmlns:xlink="http://www.w3.org/1999/xlink" x="0px" y="0px"
	 viewBox="0 0 100.8 100.8" style="enable-background:new 0 0 100.8 100.8;" xml:space="preserve">
<style type="text/css">
	.st0{fill:#E11075;stroke:#FFFFFF;stroke-width:4;stroke-linecap:round;stroke-linejoin:round;stroke-miterlimit:10;}
	.st1{fill:none;stroke:#FFFFFF;stroke-width:4;stroke-linecap:round;stroke-linejoin:round;stroke-miterlimit:10;}
</style>
<g>
	<path class="st0" d="M51.43,6.3c-1.03-0.01-1.91,0.1-2.88,0.44s-2.15,1.39-2.53,2.45c-0.36,0.99-0.27,1.55-0.25,1.88
		c-0.07,0.06-0.81,0.61-3.32,1.13c-2.52,0.52-3.43,0.3-3.5,0.3c-0.11-0.31-0.23-0.87-0.96-1.64c-0.77-0.82-2.27-1.3-3.29-1.23
		c-2.06,0.14-3.41,0.97-6.15,2.53c-2.74,1.56-4.14,2.3-5.3,4.01c-0.58,0.85-0.92,2.39-0.61,3.47c0.29,1.01,0.7,1.39,0.91,1.65
		c-0.03,0.07-0.3,0.97-2.03,2.88c-1.73,1.9-2.6,2.25-2.67,2.29c-0.28-0.19-0.71-0.56-1.73-0.75c-1.11-0.21-2.6,0.28-3.39,0.95
		c-1.58,1.32-2.18,2.78-3.48,5.65c-1.3,2.88-1.99,4.31-1.93,6.37c0.03,1.03,0.65,2.47,1.54,3.16c0.83,0.65,1.38,0.73,1.71,0.81
		c0.02,0.08,0.33,0.95,0.05,3.5c-0.28,2.56-0.78,3.35-0.81,3.42c-0.33,0-0.9-0.06-1.84,0.42c-1.01,0.48-1.94,1.77-2.19,2.77
		c-0.51,2-0.13,3.54,0.52,6.63C7.93,62.45,8.2,64,9.46,65.64c0.63,0.82,1.97,1.62,3.1,1.66c1.05,0.06,1.55-0.23,1.86-0.36
		c0.05,0.06,0.84,0.58,2.11,2.82c1.28,2.23,1.32,3.17,1.34,3.25c-0.27,0.21-0.74,0.5-1.24,1.41c-0.54,0.99-0.53,2.56-0.15,3.52
		c0.77,1.91,1.97,2.94,4.3,5.06c2.33,2.12,3.48,3.22,5.46,3.8c0.99,0.29,2.55,0.15,3.48-0.48c0.87-0.59,1.11-1.09,1.29-1.38
		c0.07,0,1.02,0,3.37,1.03c2.35,1.06,2.95,1.79,3,1.83c-0.09,0.32-0.32,0.85-0.18,1.88c0.15,1.11,1.08,2.39,1.95,2.94
		c1.74,1.1,3.32,1.22,6.45,1.56c3.13,0.35,4.7,0.56,6.64-0.14c0.97-0.35,2.16-1.39,2.54-2.45c0.36-0.98,0.25-1.52,0.23-1.86
		c0.06-0.06,0.8-0.62,3.32-1.14c2.51-0.52,3.43-0.29,3.5-0.28c0.11,0.31,0.25,0.86,0.97,1.62c0.77,0.82,2.27,1.3,3.29,1.23
		c1.82-0.12,3.27-1,5.43-2.24c0.25-0.07,0.49-0.17,0.71-0.3c2.74-1.57,4.14-2.3,5.3-4.01c0.58-0.85,0.92-2.39,0.61-3.47
		c-0.29-1.01-0.7-1.41-0.91-1.67c0.03-0.07,0.29-0.96,2.02-2.86c1.73-1.91,2.61-2.25,2.67-2.29c0.28,0.19,0.71,0.56,1.75,0.75
		c1.11,0.2,2.6-0.28,3.39-0.95c1.58-1.32,2.18-2.78,3.48-5.65c1.3-2.88,1.99-4.29,1.93-6.36c-0.03-1.03-0.65-2.48-1.54-3.17
		c-0.82-0.64-1.38-0.72-1.71-0.8c-0.01-0.07-0.34-0.96-0.06-3.52c0.28-2.55,0.78-3.33,0.81-3.41c0.33,0,0.9,0,1.84-0.43
		c1.01-0.48,1.94-1.75,2.19-2.75c0.51-2,0.14-3.54-0.5-6.63c-0.64-3.09-0.92-4.65-2.18-6.28c-0.63-0.82-1.99-1.61-3.11-1.65
		c-1.05-0.06-1.55,0.22-1.86,0.34c-0.06-0.06-0.83-0.57-2.1-2.8c-1.28-2.23-1.34-3.17-1.35-3.25c0.26-0.21,0.74-0.5,1.24-1.43
		c0.54-0.99,0.54-2.56,0.16-3.52c-0.77-1.91-1.97-2.94-4.3-5.06s-3.48-3.22-5.46-3.8c-0.99-0.29-2.56-0.14-3.49,0.49
		c-0.87,0.59-1.11,1.09-1.29,1.38c-0.08,0-1.01,0-3.36-1.03c-2.34-1.06-2.94-1.78-3-1.83c0.09-0.32,0.31-0.84,0.17-1.88
		c-0.15-1.11-1.07-2.39-1.94-2.94c-1.74-1.1-3.32-1.22-6.45-1.56v0.01C53.64,6.45,52.46,6.31,51.43,6.3z"/>
	<circle class="st1" cx="50.4" cy="50.4" r="18.3"/>
</g>
</svg>
