<?xml version="1.0" encoding="utf-8"?>
<!-- Generator: Adobe Illustrator 24.1.2, SVG Export Plug-In . SVG Version: 6.00 Build 0)  -->
<svg version="1.1" id="Layer_1" xmlns="http://www.w3.org/2000/svg" xmlns:xlink="http://www.w3.org/1999/xlink" x="0px" y="0px"
	 viewBox="0 0 142.2 152.63" style="enable-background:new 0 0 142.2 152.63;" xml:space="preserve">
<style type="text/css">
	.st0{fill:#E11075;stroke:#FFFFFF;stroke-width:4;stroke-linecap:round;stroke-linejoin:round;stroke-miterlimit:10;}
	.st1{fill:none;stroke:#FFFFFF;stroke-width:4;stroke-linecap:round;stroke-linejoin:round;stroke-miterlimit:10;}
</style>
<g>
	<path class="st0" d="M72.63,11.01c-1.52-0.02-2.82,0.14-4.26,0.66c-1.44,0.51-3.18,2.06-3.75,3.62c-0.53,1.46-0.39,2.29-0.36,2.78
		c-0.1,0.09-1.19,0.9-4.91,1.67c-3.73,0.77-5.08,0.45-5.19,0.44c-0.17-0.47-0.35-1.29-1.42-2.42c-1.15-1.21-3.36-1.92-4.88-1.82
		c-3.05,0.21-5.05,1.43-9.1,3.75c-4.05,2.32-6.12,3.41-7.84,5.93c-0.86,1.26-1.37,3.53-0.91,5.13c0.43,1.49,1.03,2.06,1.35,2.44
		c-0.05,0.1-0.44,1.44-3,4.26c-2.56,2.82-3.85,3.33-3.95,3.39c-0.41-0.28-1.05-0.83-2.57-1.11c-1.64-0.31-3.85,0.42-5.02,1.4
		c-2.35,1.96-3.23,4.12-5.15,8.37c-1.92,4.26-2.95,6.38-2.86,9.43c0.04,1.53,0.96,3.65,2.28,4.68c1.22,0.96,2.05,1.08,2.53,1.2
		c0.02,0.11,0.49,1.41,0.07,5.19c-0.41,3.78-1.16,4.96-1.2,5.06c-0.5,0-1.33-0.09-2.73,0.62c-1.5,0.72-2.87,2.62-3.24,4.1
		c-0.75,2.96-0.19,5.24,0.76,9.81c0.95,4.57,1.36,6.87,3.22,9.28c0.93,1.21,2.92,2.4,4.59,2.46c1.55,0.09,2.29-0.34,2.75-0.53
		c0.08,0.09,1.24,0.86,3.13,4.17c1.89,3.3,1.96,4.7,1.98,4.81c-0.39,0.31-1.1,0.74-1.84,2.09c-0.79,1.46-0.79,3.79-0.22,5.21
		c1.13,2.83,2.91,4.36,6.37,7.5c3.46,3.14,5.15,4.77,8.08,5.62c1.46,0.43,3.77,0.22,5.15-0.71c1.29-0.87,1.65-1.62,1.91-2.04
		c0.1,0,1.51,0,4.99,1.53c3.48,1.57,4.36,2.64,4.44,2.71c-0.14,0.48-0.48,1.25-0.27,2.78c0.22,1.65,1.6,3.54,2.89,4.35
		c2.58,1.63,4.91,1.8,9.56,2.31c4.64,0.51,6.95,0.83,9.83-0.2c1.44-0.51,3.2-2.06,3.77-3.62c0.53-1.45,0.38-2.25,0.35-2.75
		c0.09-0.09,1.18-0.91,4.91-1.69c3.72-0.77,5.07-0.43,5.19-0.42c0.17,0.47,0.37,1.28,1.44,2.4c1.15,1.21,3.36,1.92,4.88,1.82
		c2.69-0.18,4.85-1.49,8.05-3.31c0.37-0.1,0.72-0.25,1.06-0.44c4.05-2.32,6.12-3.41,7.84-5.93c0.86-1.26,1.37-3.53,0.91-5.13
		c-0.43-1.5-1.03-2.09-1.35-2.48c0.05-0.1,0.43-1.43,2.99-4.24c2.56-2.82,3.86-3.33,3.95-3.39c0.41,0.28,1.05,0.83,2.58,1.11
		c1.64,0.3,3.85-0.42,5.02-1.4c2.34-1.95,3.23-4.12,5.15-8.37s2.95-6.36,2.86-9.41c-0.04-1.53-0.96-3.67-2.28-4.7
		c-1.22-0.95-2.05-1.06-2.53-1.18c-0.02-0.1-0.51-1.42-0.09-5.21c0.41-3.77,1.15-4.93,1.2-5.04c0.5,0,1.33,0,2.73-0.64
		c1.5-0.72,2.87-2.6,3.24-4.08c0.75-2.96,0.2-5.24-0.75-9.81c-0.95-4.57-1.36-6.88-3.22-9.3c-0.93-1.21-2.94-2.38-4.61-2.44
		c-1.55-0.09-2.29,0.32-2.75,0.51c-0.08-0.09-1.23-0.85-3.11-4.15c-1.89-3.31-1.98-4.7-2-4.81c0.39-0.31,1.1-0.75,1.84-2.11
		c0.79-1.46,0.8-3.79,0.24-5.21c-1.13-2.83-2.91-4.36-6.37-7.5c-3.46-3.14-5.15-4.77-8.08-5.62c-1.46-0.43-3.79-0.2-5.17,0.73
		c-1.29,0.87-1.65,1.62-1.91,2.04c-0.11,0-1.5,0-4.97-1.53c-3.47-1.56-4.36-2.64-4.44-2.71c0.14-0.48,0.46-1.24,0.25-2.78
		c-0.22-1.65-1.58-3.54-2.88-4.35c-2.58-1.63-4.91-1.8-9.56-2.31v0.02C75.89,11.25,74.15,11.03,72.63,11.01z"/>
	<circle class="st1" cx="71.1" cy="76.32" r="29.63"/>
</g>
</svg>
