<?xml version="1.0" encoding="utf-8"?>
<!-- Generator: Adobe Illustrator 24.1.2, SVG Export Plug-In . SVG Version: 6.00 Build 0)  -->
<svg version="1.1" id="Layer_1" xmlns="http://www.w3.org/2000/svg" xmlns:xlink="http://www.w3.org/1999/xlink" x="0px" y="0px"
	 viewBox="0 0 504 504" style="enable-background:new 0 0 504 504;" xml:space="preserve">
<style type="text/css">
	.st0{fill:none;stroke:#FFFFFF;stroke-width:4;stroke-linecap:round;stroke-linejoin:round;stroke-miterlimit:10;}
</style>
<g>
	<line class="st0" x1="287.04" y1="273.1" x2="323.51" y2="273.1"/>
	<line class="st0" x1="287.04" y1="285.4" x2="323.51" y2="285.4"/>
	<path class="st0" d="M271.35,258.01c-10.22,0-12.06-3.51-15.59-10.32c-5.47-10.54-17.94-9.65-17.94-9.65h-78.23
		c-1.69,0-3.06,1.37-3.06,3.06v16.9v62.66c0,1.69,1.37,3.06,3.06,3.06h185.47c1.69,0,3.06-1.37,3.06-3.06v-59.6
		c0-1.69-1.37-3.06-3.06-3.06H271.35z"/>
	<path class="st0" d="M174.95,238.05v-37.92c0,0-0.14-18.87,26.73-18.87s50.64,0,50.64,0"/>
	<line class="st0" x1="235.99" y1="181.25" x2="258.5" y2="252.33"/>
	<line class="st0" x1="201.68" y1="181.25" x2="201.68" y2="238.05"/>
	<path class="st0" d="M310.01,258.01h-15.37v-27.57c0-1.69,1.37-3.05,3.05-3.05h9.26c1.69,0,3.05,1.37,3.05,3.05V258.01z"/>
	<path class="st0" d="M302.33,227.38v-17.68c0,0,1.85-11.46,15.1-13.85"/>
	<line class="st0" x1="322.51" y1="258.01" x2="322.51" y2="238.01"/>
</g>
</svg>
